<?xml version="1.0" standalone="no"?>
<!DOCTYPE svg PUBLIC "-//W3C//DTD SVG 20010904//EN"
 "http://www.w3.org/TR/2001/REC-SVG-20010904/DTD/svg10.dtd">
<svg version="1.0" xmlns="http://www.w3.org/2000/svg"
 width="221.000000pt" height="228.000000pt" viewBox="0 0 221.000000 228.000000"
 preserveAspectRatio="xMidYMid meet">

<g transform="translate(0.000000,228.000000) scale(0.100000,-0.100000)"
fill="#000000" stroke="none">
<path d="M1495 2274 c-16 -2 -57 -9 -90 -16 -34 -6 -122 -10 -200 -9 -148 3
-206 -6 -286 -43 -41 -19 -51 -21 -82 -10 -142 49 -380 64 -492 30 -87 -26
-149 -62 -204 -121 -135 -143 -168 -356 -102 -672 74 -357 179 -634 289 -763
39 -46 123 -90 171 -90 20 0 59 11 88 24 42 20 54 22 63 11 41 -50 230 -81
321 -52 l46 14 11 -146 c18 -237 65 -349 172 -404 51 -26 61 -28 135 -24 204
13 327 114 379 313 9 32 21 119 28 192 l11 132 57 0 c73 0 200 33 259 66 124
71 168 155 122 230 -29 48 -74 59 -172 43 -43 -7 -81 -10 -84 -7 -3 2 20 52
49 109 73 139 137 307 177 464 28 111 33 148 33 255 1 161 -15 201 -120 299
-80 75 -179 129 -283 156 -63 16 -238 27 -296 19z m242 -69 c157 -30 325 -143
376 -255 43 -92 21 -299 -55 -528 -36 -110 -150 -355 -210 -455 -20 -32 -21
-39 -8 -47 20 -13 99 -13 193 2 75 11 79 11 99 -10 21 -21 21 -23 6 -56 -20
-41 -64 -76 -143 -113 -52 -23 -76 -28 -175 -31 l-115 -4 -24 -192 c-30 -248
-48 -306 -111 -368 -101 -98 -306 -119 -393 -40 -33 29 -67 90 -83 150 -9 36
-17 126 -21 245 -6 172 -7 186 -22 173 -103 -94 -381 -68 -381 34 0 38 28 56
122 80 56 15 80 27 101 51 16 17 27 33 24 35 -2 2 -31 11 -63 20 l-59 15 -55
-63 c-30 -35 -84 -93 -120 -131 -64 -65 -68 -67 -116 -67 -88 0 -159 70 -233
232 -87 189 -185 554 -206 768 -8 79 9 214 37 287 86 232 349 310 701 208 l80
-23 61 29 c87 40 180 53 288 39 73 -10 98 -9 155 4 129 30 234 33 350 11z"/>
<path d="M1462 2142 c-20 -6 -17 -10 30 -36 29 -16 94 -70 144 -120 77 -78 99
-107 140 -191 l49 -99 -4 -100 c-5 -121 -6 -245 -2 -382 2 -82 -2 -110 -19
-158 -12 -31 -20 -59 -18 -61 2 -2 27 37 55 88 163 294 264 667 222 822 -23
86 -174 198 -311 230 -63 15 -243 19 -286 7z"/>
<path d="M1051 2120 c-178 -38 -299 -204 -335 -457 l-6 -42 57 26 c78 35 197
39 240 7 72 -53 97 -136 97 -319 0 -128 4 -110 -78 -326 l-25 -66 39 -12 c46
-14 87 -59 94 -104 3 -18 7 -144 9 -282 5 -277 12 -316 69 -373 41 -43 93 -56
165 -42 116 21 171 65 199 158 15 50 48 282 64 455 10 114 26 159 63 178 12 6
24 13 26 15 2 2 -12 27 -32 56 -19 29 -69 123 -111 208 -119 241 -133 355 -52
436 37 37 89 54 164 54 l52 0 -15 38 c-73 174 -238 324 -415 376 -67 20 -210
28 -269 16z"/>
<path d="M363 2102 c-75 -27 -126 -64 -162 -118 -69 -105 -87 -255 -52 -449
45 -247 116 -484 192 -640 50 -102 76 -140 121 -169 44 -29 70 -12 178 110
l101 114 -30 38 c-17 20 -40 60 -53 87 -21 45 -23 62 -20 175 1 69 4 197 6
285 3 121 9 180 25 242 24 95 77 206 122 257 22 26 27 37 17 40 -73 26 -153
38 -263 42 -109 4 -138 2 -182 -14z"/>
<path d="M1615 1611 c-44 -18 -60 -50 -59 -115 1 -73 33 -162 119 -321 54
-101 59 -107 68 -84 6 13 9 69 7 124 -6 190 -5 280 3 343 l9 62 -64 -1 c-34 0
-72 -4 -83 -8z m79 -24 c17 -12 17 -14 -1 -36 -23 -28 -71 -31 -89 -6 -16 21
-10 33 20 45 31 13 50 12 70 -3z"/>
<path d="M814 1592 c-106 -37 -100 -24 -106 -239 -6 -215 1 -255 56 -320 55
-64 159 -104 172 -67 4 11 27 71 52 134 35 91 46 131 50 196 4 78 -8 184 -29
252 -20 61 -96 78 -195 44z m150 -22 c56 -21 12 -81 -49 -66 -32 8 -56 53 -34
67 18 12 51 11 83 -1z"/>
<path d="M1752 869 c-23 -9 -46 -54 -38 -75 14 -36 189 -23 276 21 67 34 69
44 7 33 -64 -12 -154 -5 -193 15 -19 10 -36 12 -52 6z"/>
<path d="M978 833 c-60 -68 -81 -83 -131 -98 -28 -8 -59 -15 -68 -15 -30 0
-31 -19 -2 -27 56 -16 156 -8 199 15 48 25 94 75 94 103 0 20 -33 59 -50 59
-5 0 -24 -17 -42 -37z"/>
</g>
</svg>
