<?xml version="1.0" standalone="no"?>
<!DOCTYPE svg PUBLIC "-//W3C//DTD SVG 20010904//EN"
 "http://www.w3.org/TR/2001/REC-SVG-20010904/DTD/svg10.dtd">
<svg version="1.0" xmlns="http://www.w3.org/2000/svg"
 width="512.000000pt" height="512.000000pt" viewBox="0 0 512.000000 512.000000"
 preserveAspectRatio="xMidYMid meet">

<g transform="translate(0.000000,512.000000) scale(0.100000,-0.100000)"
fill="#000000" stroke="none">
<path d="M2805 4943 c-667 -131 -895 -179 -908 -193 -17 -16 -24 -102 -75
-964 l-56 -947 21 -21 c13 -12 33 -21 50 -20 15 1 135 26 266 57 131 30 248
55 261 55 29 0 56 -29 56 -60 0 -13 -34 -189 -76 -392 -97 -476 -106 -457 166
-373 143 44 185 52 206 37 38 -25 37 -33 -88 -633 -109 -531 -119 -586 -106
-609 10 -18 23 -26 50 -28 33 -3 40 1 65 36 15 22 354 692 752 1489 775 1551
746 1487 686 1515 -19 9 -76 1 -292 -41 -147 -28 -274 -51 -280 -51 -21 0 -53
38 -53 62 0 12 74 279 165 594 91 315 165 586 165 602 0 34 -30 63 -65 61 -11
0 -420 -80 -910 -176z"/>
<path d="M81 4542 c-50 -25 -76 -65 -75 -115 1 -37 161 -323 1233 -2202 677
-1188 1244 -2172 1258 -2187 47 -49 120 -49 172 0 31 28 2433 4317 2444 4363
9 34 -7 86 -35 116 -47 50 -42 50 -726 -73 -350 -63 -644 -118 -652 -123 -12
-6 -133 -390 -126 -398 1 -2 110 18 241 43 259 50 279 50 340 2 33 -26 64 -91
65 -135 0 -41 -1461 -2967 -1511 -3027 -72 -86 -193 -88 -264 -4 -55 65 -56
53 66 646 62 298 109 545 106 549 -4 3 -62 -10 -129 -31 -142 -42 -178 -44
-233 -13 -56 32 -85 79 -85 138 0 26 30 193 66 369 36 177 64 324 62 326 -3 2
-101 -18 -219 -46 -118 -27 -232 -50 -253 -50 -58 0 -119 40 -146 95 l-22 45
43 715 c23 393 39 718 35 722 -6 7 -66 18 -541 103 -121 21 -410 73 -642 115
-232 41 -425 75 -430 75 -4 0 -23 -8 -42 -18z"/>
</g>
</svg>
